<svg width="218" height="80" viewBox="0 0 218 80" fill="none" xmlns="http://www.w3.org/2000/svg">
<mask id="mask0_2693_1122" style="mask-type:alpha" maskUnits="userSpaceOnUse" x="178" y="0" width="40" height="40">
<rect x="178" width="40" height="40" fill="#D9D9D9"/>
</mask>
<g mask="url(#mask0_2693_1122)">
<path d="M206.25 37.8795C205.894 37.8795 205.587 37.7486 205.33 37.487C205.073 37.2253 204.945 36.9163 204.945 36.5599C204.945 36.1941 205.068 35.885 205.316 35.6328C205.564 35.3806 205.875 35.2545 206.25 35.2545C208.208 35.2545 209.869 34.5727 211.233 33.2091C212.596 31.8457 213.278 30.1849 213.278 28.2266C213.278 27.8607 213.404 27.5528 213.656 27.3028C213.909 27.0528 214.222 26.9278 214.597 26.9278C214.945 26.9278 215.249 27.0575 215.51 27.317C215.772 27.5761 215.903 27.8793 215.903 28.2266C215.903 30.9118 214.958 33.192 213.07 35.067C211.181 36.942 208.907 37.8795 206.25 37.8795ZM181.445 13.0878C181.088 13.0878 180.779 12.9593 180.517 12.7024C180.256 12.4455 180.125 12.1386 180.125 11.782C180.125 9.10615 181.067 6.82378 182.952 4.9349C184.836 3.04601 187.111 2.10156 189.778 2.10156C190.144 2.10156 190.456 2.23351 190.715 2.4974C190.975 2.76128 191.104 3.07142 191.104 3.42781C191.104 3.80281 190.979 4.11309 190.729 4.35865C190.479 4.60392 190.171 4.72656 189.806 4.72656C187.848 4.72656 186.182 5.41059 184.809 6.77865C183.436 8.1467 182.75 9.80531 182.75 11.7545C182.75 12.1295 182.624 12.4455 182.372 12.7024C182.119 12.9593 181.81 13.0878 181.445 13.0878ZM186.361 31.5391C183.861 29.0482 182.604 26.0598 182.59 22.5736C182.577 19.0875 183.815 16.1038 186.306 13.6224L189.257 10.6641C189.623 10.2982 189.986 10.1917 190.348 10.3445C190.709 10.4973 191.037 10.7149 191.333 10.9974C191.935 11.5993 192.241 12.3239 192.25 13.1711C192.259 14.0184 191.954 14.7521 191.333 15.3724L189.479 17.2128C189.22 17.472 189.09 17.7832 189.09 18.1466C189.09 18.5102 189.22 18.8216 189.479 19.0807L189.952 19.5878C190.669 20.3053 191.028 21.1745 191.028 22.1953C191.028 23.2161 190.669 24.0853 189.952 24.8028C189.753 25.002 189.653 25.2405 189.653 25.5182C189.653 25.796 189.753 26.0345 189.952 26.2336C190.151 26.4325 190.389 26.532 190.667 26.532C190.944 26.532 191.183 26.4325 191.382 26.2336C192.493 25.1225 193.05 23.7788 193.052 22.2024C193.055 20.626 192.503 19.2845 191.396 18.1778L192.729 16.817C193.336 16.2103 193.762 15.5228 194.007 14.7545C194.252 13.9859 194.308 13.2266 194.174 12.4766L200.632 6.01823C200.891 5.76823 201.204 5.64323 201.57 5.64323C201.935 5.64323 202.248 5.76823 202.507 6.01823C202.766 6.2774 202.896 6.59337 202.896 6.96615C202.896 7.33892 202.766 7.6549 202.507 7.91406L194.125 16.317L196.493 18.6849L207.257 7.95573C207.516 7.69656 207.826 7.56698 208.188 7.56698C208.549 7.56698 208.859 7.69656 209.118 7.95573C209.377 8.2149 209.507 8.52392 209.507 8.88281C209.507 9.2417 209.377 9.54615 209.118 9.79615L198.389 20.5528L200.75 22.9486L210.34 13.3653C210.6 13.1153 210.912 12.9916 211.278 12.9941C211.644 12.9963 211.956 13.127 212.215 13.3861C212.475 13.6456 212.604 13.9535 212.604 14.3099C212.604 14.6663 212.475 14.9742 212.215 15.2336L202.632 24.817L205.021 27.2336L211.938 20.317C212.197 20.0575 212.509 19.9278 212.875 19.9278C213.241 19.9278 213.553 20.0575 213.812 20.317C214.072 20.5761 214.202 20.8839 214.202 21.2403C214.202 21.597 214.072 21.9049 213.812 22.1641L204.333 31.6503C201.843 34.1317 198.85 35.3609 195.354 35.3378C191.859 35.3145 188.861 34.0482 186.361 31.5391Z" fill="#F8F9FA"/>
</g>
<g clip-path="url(#clip0_2693_1122)">
<circle cx="109" cy="60" r="109" fill="#3355FF"/>
<path d="M25.476 66V54.12H27.474V66H25.476ZM29.2275 57.45C29.4435 56.898 29.5935 56.394 29.6775 55.938C29.7735 55.482 29.8275 55.044 29.8395 54.624C29.8635 54.192 29.8755 53.754 29.8755 53.31H31.7115C31.7115 53.994 31.6695 54.594 31.5855 55.11C31.5015 55.626 31.3875 56.076 31.2435 56.46C31.0995 56.844 30.9555 57.174 30.8115 57.45H29.2275ZM33.5795 66V54.12H36.5855L40.3115 63.858H40.4015L44.1095 54.12H46.9895V66H45.1175L45.2435 56.1H45.0815L41.1575 66H39.3575L35.4695 56.1H35.3075L35.4335 66H33.5795ZM54.3569 66V54.12H56.3189V59.682C56.9669 59.442 57.5849 59.13 58.1729 58.746C58.7729 58.35 59.3189 57.906 59.8109 57.414C60.3149 56.922 60.7469 56.394 61.1069 55.83C61.4669 55.266 61.7369 54.696 61.9169 54.12H64.1309C63.9149 54.78 63.6209 55.41 63.2489 56.01C62.8769 56.61 62.4449 57.168 61.9529 57.684C61.4729 58.188 60.9629 58.632 60.4229 59.016C59.8949 59.4 59.3669 59.706 58.8389 59.934V60.168C59.4149 60.168 59.9309 60.246 60.3869 60.402C60.8549 60.546 61.2749 60.762 61.6469 61.05C62.0189 61.338 62.3489 61.704 62.6369 62.148C62.9369 62.592 63.2069 63.114 63.4469 63.714L64.2749 66H62.0429L61.5209 64.218C61.2809 63.522 60.9929 62.952 60.6569 62.508C60.3209 62.064 59.8949 61.734 59.3789 61.518C58.8629 61.302 58.1969 61.194 57.3809 61.194H56.3189V66H54.3569ZM65.4602 66L69.6002 54.12H72.4622L76.6022 66H74.4782L71.1482 55.722H70.9142L67.5842 66H65.4602ZM67.5302 63.444V62.004H74.7842V63.444H67.5302ZM78.5444 66V54.12H82.9004C83.5244 54.12 84.0884 54.168 84.5924 54.264C85.0964 54.36 85.5464 54.504 85.9424 54.696C86.3384 54.888 86.6744 55.128 86.9504 55.416C87.2264 55.692 87.4304 56.016 87.5624 56.388C87.7064 56.748 87.7784 57.15 87.7784 57.594C87.7784 58.014 87.7124 58.398 87.5804 58.746C87.4604 59.082 87.2684 59.382 87.0044 59.646C86.7524 59.91 86.4344 60.126 86.0504 60.294C85.6784 60.45 85.2404 60.558 84.7364 60.618V60.852C85.2284 60.912 85.6424 61.038 85.9784 61.23C86.3144 61.422 86.5964 61.692 86.8244 62.04C87.0524 62.388 87.2444 62.844 87.4004 63.408L88.1384 66H85.9964L85.4204 63.624C85.3004 63.144 85.1204 62.76 84.8804 62.472C84.6404 62.172 84.3404 61.956 83.9804 61.824C83.6204 61.692 83.1944 61.626 82.7024 61.626H80.5064V66H78.5444ZM80.5064 60.078H82.7564C83.7404 60.078 84.4844 59.898 84.9884 59.538C85.5044 59.178 85.7624 58.626 85.7624 57.882C85.7624 57.138 85.5164 56.592 85.0244 56.244C84.5444 55.884 83.8004 55.704 82.7924 55.704H80.5064V60.078ZM90.4272 66V54.12H92.3892V66H90.4272ZM90.9492 66V64.308H97.7532V66H90.9492ZM111.845 66V54.12H113.807V66H111.845ZM103.997 66V54.12H105.959V66H103.997ZM105.041 60.78V59.124H112.619V60.78H105.041ZM121.692 66.234C120.828 66.234 120.06 66.096 119.388 65.82C118.728 65.532 118.164 65.124 117.696 64.596C117.24 64.068 116.892 63.426 116.652 62.67C116.424 61.914 116.31 61.062 116.31 60.114C116.31 58.722 116.544 57.57 117.012 56.658C117.48 55.734 118.122 55.044 118.938 54.588C119.754 54.12 120.684 53.886 121.728 53.886C122.544 53.886 123.282 54.024 123.942 54.3C124.602 54.564 125.166 54.966 125.634 55.506C126.114 56.034 126.48 56.688 126.732 57.468C126.984 58.236 127.11 59.112 127.11 60.096C127.11 61.056 126.99 61.92 126.75 62.688C126.51 63.444 126.156 64.086 125.688 64.614C125.22 65.142 124.65 65.544 123.978 65.82C123.318 66.096 122.556 66.234 121.692 66.234ZM121.728 64.596C122.448 64.596 123.06 64.422 123.564 64.074C124.068 63.726 124.452 63.228 124.716 62.58C124.98 61.92 125.112 61.116 125.112 60.168C125.112 59.196 124.974 58.368 124.698 57.684C124.434 57 124.044 56.478 123.528 56.118C123.024 55.746 122.412 55.56 121.692 55.56C120.996 55.56 120.39 55.74 119.874 56.1C119.37 56.448 118.98 56.958 118.704 57.63C118.44 58.302 118.308 59.13 118.308 60.114C118.308 60.834 118.386 61.476 118.542 62.04C118.698 62.592 118.92 63.06 119.208 63.444C119.496 63.816 119.85 64.104 120.27 64.308C120.702 64.5 121.188 64.596 121.728 64.596ZM129.626 66V54.12H131.588V66H129.626ZM130.472 61.122V59.466H137.33V61.122H130.472ZM130.472 55.83V54.12H138.068V55.83H130.472ZM140.033 66V54.12H143.039L146.765 63.858H146.855L150.563 54.12H153.443V66H151.571L151.697 56.1H151.535L147.611 66H145.811L141.923 56.1H141.761L141.887 66H140.033ZM155.372 66L159.512 54.12H162.374L166.514 66H164.39L161.06 55.722H160.826L157.496 66H155.372ZM157.442 63.444V62.004H164.696V63.444H157.442ZM168.456 66V54.12H171.048L177.006 63.39H177.168L177.042 54.12H178.95V66H176.592L170.4 56.442H170.238L170.364 66H168.456ZM181.886 66V54.12H184.478L190.436 63.39H190.598L190.472 54.12H192.38V66H190.022L183.83 56.442H183.668L183.794 66H181.886Z" fill="#F8F9FA"/>
</g>
<rect x="0.5" y="40.5" width="217" height="39" rx="19.5" stroke="#F8F9FA"/>
<defs>
<clipPath id="clip0_2693_1122">
<rect y="40" width="218" height="40" rx="20" fill="white"/>
</clipPath>
</defs>
</svg>
